<?xml version="1.0" encoding="utf-8"?><!-- Uploaded to: SVG Repo, www.svgrepo.com, Generator: SVG Repo Mixer Tools -->
<svg width="800px" height="800px" viewBox="0 0 1024 1024" xmlns="http://www.w3.org/2000/svg"><path fill="#000000" d="M288 896h448q32 0 32 32t-32 32H288q-32 0-32-32t32-32z"/><path fill="#000000" d="M800 416a288 288 0 1 0-576 0c0 118.144 94.528 272.128 288 456.576C705.472 688.128 800 534.144 800 416zM512 960C277.312 746.688 160 565.312 160 416a352 352 0 0 1 704 0c0 149.312-117.312 330.688-352 544z"/><path fill="#000000" d="M544 384h96a32 32 0 1 1 0 64h-96v96a32 32 0 0 1-64 0v-96h-96a32 32 0 0 1 0-64h96v-96a32 32 0 0 1 64 0v96z"/>
    <path d="M18 12H15M21 8H3M18 16H15M13 19C12.6218 17.2883 10.9747 16 9 16C7.03262 16 5.39034 17.2788 5.00424 18.9811M9 12H9.01M5.00424 18.9811C5.31776 19 5.70396 19 6.2 19H17.8C18.9201 19 19.4802 19 19.908 18.782C20.2843 18.5903 20.5903 18.2843 20.782 17.908C21 17.4802 21 16.9201 21 15.8V8.2C21 7.0799 21 6.51984 20.782 6.09202C20.5903 5.71569 20.2843 5.40973 19.908 5.21799C19.4802 5 18.9201 5 17.8 5H6.2C5.0799 5 4.51984 5 4.09202 5.21799C3.71569 5.40973 3.40973 5.71569 3.21799 6.09202C3 6.51984 3 7.07989 3 8.2V15.8C3 16.9201 3 17.4802 3.21799 17.908C3.40973 18.2843 3.71569 18.5903 4.09202 18.782C4.33038 18.9035 4.60979 18.9572 5.00424 18.9811ZM10 12C10 12.5523 9.55228 13 9 13C8.44772 13 8 12.5523 8 12C8 11.4477 8.44772 11 9 11C9.55228 11 10 11.4477 10 12Z" stroke="#000000" stroke-width="2" stroke-linecap="round" stroke-linejoin="round"/>
</svg>